{"title":"Daddy Yankee - Lovumba (Premios Lo Nuestro 2012) (h264)","uid":7065243,"size":131173362,"categoryP":"video","categoryS":"music_videos","magnet":"?xt=urn:btih:837d3ec910dc2d8ef18df4323c45c9a89f6307be&amp;dn=Daddy+Yankee+-+Lovumba+%28Premios+Lo+Nuestro+2012%29+%28h264%29&amp;tr=udp%3A%2F%2Ftracker.openbittorrent.com%3A80&amp;tr=udp%3A%2F%2Fopen.demonii.com%3A1337&amp;tr=udp%3A%2F%2Ftracker.coppersurfer.tk%3A6969&amp;tr=udp%3A%2F%2Fexodus.desync.com%3A6969","seeders":1,"leechers":0,"uploader":"MusicVideos-HQ","files":1,"time":1330491121,"description":"General\n\n\nFormat                           : MPEG-4\nFormat profile                   : Base Media\nCodec ID                         : isom\nFile size                        : 125 MiB\nDuration                         : 4mn 35s\nOverall bit rate                 : 3 815 Kbps\nEncoded date                     : UTC 2012-02-28 05:08:36\nTagged date                      : UTC 2012-02-28 05:08:36\n\nVideo\nID                               : 1\nFormat                           : AVC\nFormat/Info                      : Advanced Video Codec\nFormat profile                   : &lt;a class=&quot;__cf_email__&quot; href=&quot;/cdn-cgi/l/email-protection&quot; data-cfemail=&quot;420a2b252a020e716c72&quot;&gt;[email&amp;#160;protected]&lt;/a&gt;&lt;script cf-hash='f9e31' type=&quot;text/javascript&quot;&gt;\n/* &lt;![CDATA[ */!function(){try{var t=&quot;currentScript&quot;in document?document.currentScript:function(){for(var t=document.getElementsByTagName(&quot;script&quot;),e=t.length;e--;)if(t[e].getAttribute(&quot;cf-hash&quot;))return t[e]}();if(t&amp;&amp;t.previousSibling){var e,r,n,i,c=t.previousSibling,a=c.getAttribute(&quot;data-cfemail&quot;);if(a){for(e=&quot;&quot;,r=parseInt(a.substr(0,2),16),n=2;a.length-n;n+=2)i=parseInt(a.substr(n,2),16)^r,e+=String.fromCharCode(i);e=document.createTextNode(e),c.parentNode.replaceChild(e,c)}}}catch(u){}}();/* ]]&gt; */&lt;/script&gt;\nFormat settings, CABAC           : Yes\nFormat settings, ReFrames        : 2 frames\nCodec ID                         : avc1\nCodec ID/Info                    : Advanced Video Coding\nDuration                         : 4mn 35s\nBit rate mode                    : Variable\nBit rate                         : 3 700 Kbps\nMaximum bit rate                 : 8 340 Kbps\nWidth                            : 640 pixels\nHeight                           : 480 pixels\nDisplay aspect ratio             : 4:3\nFrame rate mode                  : Constant\nFrame rate                       : 29.970 fps\nColor space                      : YUV\nChroma subsampling               : 4:2:0\nBit depth                        : 8 bits\nScan type                        : Progressive\nBits/(Pixel*Frame)               : 0.402\nStream size                      : 123 MiB (98%)\n\n\nAudio\nID                               : 2\nFormat                           : AAC\nFormat/Info                      : Advanced Audio Codec\nFormat profile                   : LC\nCodec ID                         : 40\nDuration                         : 4mn 34s\nBit rate mode                    : Variable\nBit rate                         : 60.7 Kbps\nMaximum bit rate                 : 69.9 Kbps\nChannel(s)                       : 2 channels\nChannel positions                : Front: L R\nSampling rate                    : 44.1 KHz\nCompression mode                 : Lossy\nStream size                      : 1.99 MiB (2%)\n\n","torrent":{"xt":"urn:btih:837d3ec910dc2d8ef18df4323c45c9a89f6307be","amp;dn":"Daddy+Yankee+-+Lovumba+%28Premios+Lo+Nuestro+2012%29+%28h264%29","amp;tr":["udp%3A%2F%2Ftracker.openbittorrent.com%3A80","udp%3A%2F%2Fopen.demonii.com%3A1337","udp%3A%2F%2Ftracker.coppersurfer.tk%3A6969","udp%3A%2F%2Fexodus.desync.com%3A6969"],"infoHash":"837d3ec910dc2d8ef18df4323c45c9a89f6307be","infoHashBuffer":{"type":"Buffer","data":[131,125,62,201,16,220,45,142,241,141,244,50,60,69,201,168,159,99,7,190]},"announce":[],"urlList":[]}}